<?xml version="1.0" standalone="no"?>
<!DOCTYPE svg PUBLIC "-//W3C//DTD SVG 20010904//EN"
 "http://www.w3.org/TR/2001/REC-SVG-20010904/DTD/svg10.dtd">
<svg version="1.0" xmlns="http://www.w3.org/2000/svg"
 width="300.000000pt" height="300.000000pt" viewBox="0 0 300.000000 300.000000"
 preserveAspectRatio="xMidYMid meet">
<metadata>
Created by potrace 1.11, written by Peter Selinger 2001-2013
</metadata>
<g transform="translate(0.000000,300.000000) scale(0.100000,-0.100000)"
fill="#000000" stroke="none">
<path d="M1385 2749 c-38 -17 -79 -35 -90 -40 -11 -4 -40 -17 -65 -27 -41 -18
-289 -102 -345 -118 -86 -24 -409 -81 -515 -91 -30 -3 -66 -12 -78 -20 -23
-14 -24 -17 -17 -126 3 -62 8 -134 10 -162 2 -27 6 -108 9 -180 4 -71 9 -148
12 -170 3 -22 7 -49 9 -60 1 -11 6 -42 10 -70 4 -27 11 -58 16 -67 5 -9 9 -26
9 -37 0 -11 7 -42 15 -68 40 -126 48 -150 61 -180 8 -17 14 -34 14 -38 0 -3
11 -30 23 -58 13 -29 29 -63 35 -77 6 -14 25 -47 42 -75 16 -27 33 -57 37 -65
10 -22 131 -190 178 -247 50 -61 189 -199 240 -238 21 -16 43 -35 49 -40 6 -6
28 -21 48 -35 21 -14 38 -28 38 -32 0 -5 7 -8 15 -8 8 0 15 -5 15 -10 0 -6 8
-14 18 -17 9 -4 31 -17 47 -29 17 -12 63 -39 103 -59 39 -20 74 -41 77 -45 6
-10 126 -10 140 0 6 4 42 24 80 45 68 36 282 187 332 233 13 12 26 22 29 22 6
0 22 14 95 82 64 59 269 312 269 331 0 3 16 29 36 58 42 63 104 185 104 205 0
8 5 14 10 14 6 0 10 8 10 18 1 9 9 35 20 57 11 22 19 46 20 53 0 7 4 20 9 30
5 9 17 46 26 82 9 36 23 88 30 115 8 28 17 72 20 99 3 27 8 52 9 55 4 6 12
103 22 266 3 50 7 115 9 145 2 30 4 104 5 163 2 95 0 110 -16 122 -16 12 -65
20 -95 17 -4 -1 -22 3 -40 9 -19 5 -56 12 -84 15 -27 2 -70 9 -95 14 -25 5
-66 12 -90 15 -53 7 -85 13 -85 15 0 1 -25 8 -55 15 -30 7 -80 20 -110 29 -30
9 -68 21 -85 26 -39 11 -160 56 -205 76 -19 8 -46 20 -60 26 -50 20 -95 40
-112 49 -46 23 -93 20 -163 -12z m339 -381 c18 -16 19 -34 19 -257 -1 -179 2
-243 11 -251 8 -6 103 -10 242 -12 237 -1 279 -7 282 -36 6 -53 4 -433 -2
-455 -4 -18 -15 -29 -33 -34 -15 -3 -127 -6 -248 -6 -121 0 -227 -3 -236 -8
-14 -7 -16 -38 -17 -251 0 -230 -1 -243 -20 -258 -29 -24 -456 -23 -488 0 -20
14 -20 24 -22 259 -1 134 -4 246 -7 250 -4 3 -111 7 -238 7 -239 2 -287 9
-287 41 -1 29 -1 384 -1 430 1 37 4 42 33 52 21 7 113 11 255 11 123 -1 227 1
233 5 6 4 10 96 10 250 0 243 0 244 23 262 22 17 45 18 248 18 199 0 226 -2
243 -17z"/>
<path d="M1451 2131 c-12 -16 -21 -34 -21 -40 0 -6 -4 -11 -10 -11 -5 0 -10
-6 -10 -14 0 -8 -6 -21 -12 -28 -38 -39 -93 -157 -80 -170 12 -12 278 -17 310
-6 12 4 22 12 22 18 0 5 -18 39 -40 75 -22 36 -40 68 -40 70 0 12 -82 135 -90
135 -5 0 -18 -13 -29 -29z"/>
<path d="M1499 1763 c-4 -41 -12 -70 -25 -87 -19 -28 -18 -46 5 -46 42 0 62
-57 30 -86 -19 -17 -23 -17 -47 -3 -21 12 -27 22 -26 47 1 31 -1 33 -28 27
-15 -4 -49 -7 -73 -7 -42 0 -45 -1 -45 -26 0 -110 80 -189 190 -190 61 0 100
17 142 62 25 26 56 97 53 121 -6 59 -21 96 -48 126 -43 48 -125 87 -128 62z"/>
<path d="M1140 1735 c-7 -8 -16 -15 -21 -15 -5 0 -30 -13 -56 -29 -27 -16 -73
-43 -103 -60 -39 -21 -54 -35 -52 -48 4 -21 38 -53 58 -53 8 0 14 -4 14 -9 0
-5 11 -12 25 -15 14 -4 25 -11 25 -16 0 -6 6 -10 14 -10 7 0 19 -7 26 -15 7
-8 21 -15 31 -15 11 0 19 -4 19 -9 0 -5 15 -14 32 -20 27 -10 35 -9 44 3 12
17 13 294 1 314 -11 17 -42 15 -57 -3z"/>
<path d="M1769 1748 c-1 -2 -3 -76 -4 -165 -2 -187 0 -190 74 -144 26 15 57
32 69 35 12 4 22 12 22 17 0 5 4 9 10 9 7 0 80 40 118 65 1 1 0 10 -4 19 -6
16 -52 46 -229 146 -32 18 -52 24 -56 18z"/>
<path d="M1314 1301 c-12 -12 1 -44 46 -119 28 -46 50 -87 50 -93 0 -5 5 -9
10 -9 6 0 10 -6 10 -14 0 -8 11 -27 24 -43 l24 -28 21 25 c11 14 20 31 21 38
0 6 4 12 9 12 4 0 19 23 32 50 13 28 27 50 31 50 5 0 8 9 8 20 0 11 4 20 8 20
10 0 33 45 39 73 2 10 -4 18 -15 19 -39 3 -314 3 -318 -1z"/>
</g>
</svg>
